<svg xmlns="http://www.w3.org/2000/svg" viewBox="0 0 124 32"><path d="M28.8 12.8h8.4c2.4 0 4.2.7 5.4 1.9 1 1 1.6 2.4 1.6 4.1v.1c0 3.1-1.9 5-4.5 5.7l5.1 7.1h-3.9l-4.6-6.6h-4.1v6.6h-3.3V12.8zm8.2 9.4c2.4 0 3.9-1.2 3.9-3.2s-1.5-3.1-3.9-3.1h-4.8v6.3H37zm20.6-9.5h3.1l8.3 19h-3.5l-1.9-4.6h-8.9l-1.9 4.6h-3.4l8.2-19zm4.8 11.5l-3.3-7.5-3.2 7.5h6.5zm12-11.4h7c5.9 0 10 4.1 10 9.4v.1c0 5.3-4.1 9.4-10 9.4h-7V12.8zm3.3 3v12.8h3.7c4 0 6.5-2.7 6.5-6.4v-.1c0-3.7-2.6-6.4-6.5-6.4h-3.7zm19.6-3h3.3v18.9h-3.3zm26.4 0l-6.5 9.2 6.8 9.7h-3.9l-5-7.2-4.9 7.2h-3.8l6.8-9.6-6.6-9.3h3.9l4.7 6.9 4.7-6.9z" fill="#003057" class="st0"/><path d="M13.4 27.7c-.6 0-1.2-.3-1.5-.8L4.4 16.6H-.4v-3.8h5.8c.6 0 1.2.3 1.5.8L13 22 22.3.8c.3-.7 1-1.1 1.7-1.1h11.6v3.8H25.2L15.1 26.6c-.3.6-.8 1-1.5 1.1h-.2" fill="#00c389" class="st1"/></svg>